<svg width="31" height="31" viewBox="0 0 31 31" fill="none" xmlns="http://www.w3.org/2000/svg">
<path d="M27.8333 6.25016H21.6666V3.16683C21.6666 1.471 20.2791 0.0834961 18.5833 0.0834961H12.4166C10.7208 0.0834961 9.33331 1.471 9.33331 3.16683V6.25016H3.16665C1.47081 6.25016 0.083313 7.63766 0.083313 9.3335V27.8335C0.083313 29.5293 1.47081 30.9168 3.16665 30.9168H27.8333C29.5291 30.9168 30.9166 29.5293 30.9166 27.8335V9.3335C30.9166 7.63766 29.5291 6.25016 27.8333 6.25016ZM12.4166 3.16683H18.5833V6.25016H12.4166V3.16683ZM27.8333 27.8335H3.16665V9.3335H27.8333V27.8335Z" fill="#01A768"/>
<path d="M17.0416 12.417H13.9583V17.042H9.33331V20.1253H13.9583V24.7503H17.0416V20.1253H21.6666V17.042H17.0416V12.417Z" fill="#01A768"/>
</svg>
