<svg width="18" height="14" viewBox="0 0 18 14" fill="none" xmlns="http://www.w3.org/2000/svg">
<path d="M15.3547 11.286L16.9373 11.2857V7.73469L14.281 4.42857H11.6248V11.2857M15.3547 11.286C15.1985 10.7865 14.7768 10.4286 14.281 10.4286M15.3547 11.286C15.3966 11.4199 15.4194 11.5641 15.4194 11.7143M14.281 10.4286C13.7853 10.4286 13.3636 10.7865 13.2074 11.286M14.281 10.4286C14.9098 10.4286 15.4194 11.0042 15.4194 11.7143M14.281 10.4286C13.6523 10.4286 13.1427 11.0042 13.1427 11.7143M13.2074 11.286L11.6248 11.2857M13.2074 11.286C13.1655 11.4199 13.1427 11.5641 13.1427 11.7143M11.6248 11.2857V1H1M11.6248 11.2857L6.24772 11.286M6.24772 11.286C6.09151 10.7865 5.66978 10.4286 5.17404 10.4286M6.24772 11.286C6.28962 11.4199 6.31242 11.5641 6.31242 11.7143M5.17404 10.4286C4.6783 10.4286 4.25658 10.7865 4.10036 11.286M5.17404 10.4286C5.80275 10.4286 6.31242 11.0042 6.31242 11.7143M5.17404 10.4286C4.54534 10.4286 4.03567 11.0042 4.03567 11.7143M4.10036 11.286L3.27675 11.2857M4.10036 11.286C4.05847 11.4199 4.03567 11.5641 4.03567 11.7143M15.4194 11.7143C15.4194 12.4244 14.9098 13 14.281 13C13.6523 13 13.1427 12.4244 13.1427 11.7143M6.31242 11.7143C6.31242 12.4244 5.80275 13 5.17404 13C4.54534 13 4.03567 12.4244 4.03567 11.7143M3.65621 6.14286H2.51783M3.65621 8.71429H3.27675M3.65621 3.57143H1.75892" stroke="white" stroke-linecap="round"/>
</svg>
