<svg width="31" height="31" viewBox="0 0 31 31" fill="none" xmlns="http://www.w3.org/2000/svg">
<path d="M27.8334 6.24992H21.6667V3.16659C21.6667 1.47075 20.2792 0.083252 18.5834 0.083252H12.4167C10.7209 0.083252 9.33337 1.47075 9.33337 3.16659V6.24992H3.16671C1.47087 6.24992 0.083374 7.63742 0.083374 9.33325V27.8333C0.083374 29.5291 1.47087 30.9166 3.16671 30.9166H27.8334C29.5292 30.9166 30.9167 29.5291 30.9167 27.8333V9.33325C30.9167 7.63742 29.5292 6.24992 27.8334 6.24992ZM12.4167 3.16659H18.5834V6.24992H12.4167V3.16659ZM27.8334 27.8333H3.16671V9.33325H27.8334V27.8333Z" fill="#03A9F5"/>
<path d="M17.0417 12.4165H13.9584V17.0415H9.33337V20.1248H13.9584V24.7498H17.0417V20.1248H21.6667V17.0415H17.0417V12.4165Z" fill="#03A9F5"/>
</svg>
