<svg width="37" height="37" viewBox="0 0 37 37" fill="none" xmlns="http://www.w3.org/2000/svg">
<path d="M28.994 9.57616L19.288 5.41643C18.7849 5.20081 18.2154 5.20081 17.7123 5.41643L8.00628 9.57616C7.18704 9.92726 6.69901 10.7781 6.80956 11.6625L7.96421 20.8997C8.18436 22.6609 9.06534 24.2728 10.4289 25.409L17.2198 31.0681C17.9615 31.6862 19.0388 31.6862 19.7805 31.0681L26.5715 25.409C27.935 24.2728 28.816 22.6609 29.0361 20.8997L30.1908 11.6625C30.3013 10.7781 29.8133 9.92726 28.994 9.57616Z" stroke="#03A9F5" stroke-width="2" stroke-linecap="round"/>
<path d="M13.8748 18.5L18.0686 22.6937C18.2917 22.9168 18.6631 22.8801 18.8382 22.6175L24.6665 13.875" stroke="#03A9F5" stroke-width="2" stroke-linecap="round"/>
</svg>
