<svg width="37" height="37" viewBox="0 0 37 37" fill="none" xmlns="http://www.w3.org/2000/svg">
<path d="M13.8752 15.4166L19.2999 19.4852C19.7184 19.799 20.3081 19.7373 20.6525 19.3437L30.8335 7.70825" stroke="#FED600" stroke-width="2" stroke-linecap="round"/>
<path d="M32.375 18.5C32.375 21.3991 31.4669 24.2254 29.7782 26.5819C28.0896 28.9384 25.7052 30.7068 22.96 31.6387C20.2147 32.5705 17.2466 32.6191 14.4723 31.7775C11.698 30.936 9.25708 29.2466 7.49222 26.9466C5.72737 24.6466 4.72728 21.8515 4.63243 18.954C4.53757 16.0564 5.35271 13.202 6.96336 10.7915C8.57401 8.38096 10.8993 6.53551 13.6125 5.51431C16.3258 4.4931 19.2908 4.34744 22.0911 5.09778" stroke="#FED600" stroke-width="2" stroke-linecap="round"/>
</svg>
