<svg width="92" height="90" viewBox="0 0 92 90" fill="none" xmlns="http://www.w3.org/2000/svg">
<path d="M37.0637 66.0864C38.0216 67.1146 45.2609 75.3905 45.6232 75.5127C48.684 72.6292 51.4708 69.5436 54.1838 66.3365C59.3398 66.7343 65.0703 67.1687 70.0501 68.5352C71.5551 68.9482 74.7377 69.8769 75.4803 71.2704C75.6471 71.5833 75.6844 71.9297 75.5694 72.2671C75.272 73.1391 74.1924 73.6978 73.4082 74.061C70.8988 75.2235 68.0137 75.8256 65.3139 76.3488C54.0881 78.5247 42.3904 78.5917 31.0631 77.2279C27.2392 76.7675 22.8608 76.0905 19.2551 74.7532C18.2034 74.3631 16.5803 73.7493 16.1075 72.6431C15.9636 72.3064 15.9618 71.9469 16.1166 71.6137C17.4335 68.7777 29.4938 67.0689 32.6682 66.6585C33.5962 66.5385 34.5272 66.3914 35.4557 66.2859C35.8891 66.2367 36.5954 66.2749 36.987 66.119C37.0127 66.1088 37.0381 66.0973 37.0637 66.0864Z" fill="url(#paint0_linear_323_10628)"/>
<path d="M45.6402 0C53.4608 0.0680071 60.6928 3.07659 66.193 8.65999C71.3419 13.8867 74.874 21.4678 74.787 28.8794C74.6418 41.2509 61.9918 57.248 54.1842 66.3368C51.4712 69.5439 48.6844 72.6295 45.6236 75.513C45.5592 74.5207 45.5927 73.5072 45.5926 72.5127C45.5924 70.5266 45.6112 68.539 45.5851 66.5532L45.6284 66.4655C47.3225 64.6598 48.9934 62.5551 50.5845 60.646C52.7106 58.1458 54.7596 55.5838 56.7315 52.9601C58.7032 50.3363 60.5941 47.6555 62.4043 44.9179C64.0009 42.4658 65.5571 40.0076 66.7455 37.3259C67.8705 34.7877 68.6207 32.1701 68.732 29.3796C68.9693 23.4279 66.4683 17.3957 62.4654 13.0483C62.3583 12.9319 62.2501 12.8167 62.1407 12.7027C62.0313 12.5886 61.9207 12.4757 61.809 12.3639C61.6972 12.2521 61.5844 12.1415 61.4704 12.032C61.3563 11.9225 61.2412 11.8143 61.1249 11.7072C61.0087 11.6001 60.8913 11.4942 60.7729 11.3895C60.6545 11.2848 60.5349 11.1814 60.4143 11.0792C60.2938 10.977 60.1721 10.8761 60.0494 10.7764C59.9268 10.6766 59.8031 10.5782 59.6785 10.481C59.5538 10.384 59.4281 10.2881 59.3015 10.1935C59.1748 10.0989 59.0471 10.0057 58.9185 9.91389C58.7899 9.82195 58.6604 9.73136 58.53 9.64211C58.3996 9.55287 58.2682 9.46497 58.1359 9.37841C58.0037 9.29186 57.8705 9.20669 57.7364 9.12291C57.6024 9.03914 57.4675 8.95675 57.3318 8.87574C57.1961 8.79466 57.0596 8.71504 56.9222 8.6369C56.7849 8.55867 56.6467 8.48187 56.5078 8.4065C56.3688 8.33122 56.2291 8.25733 56.0886 8.18482C55.9481 8.1124 55.8069 8.04141 55.6649 7.97184C55.523 7.90228 55.3804 7.83419 55.2371 7.76757C55.0937 7.70095 54.9497 7.63584 54.8051 7.57225C54.6603 7.50858 54.5149 7.44642 54.369 7.38577C54.2231 7.32512 54.0765 7.26599 53.9293 7.20837C53.7821 7.15075 53.6343 7.09465 53.4859 7.04006C53.3376 6.98555 53.1887 6.93252 53.0393 6.88095C52.8899 6.82948 52.7399 6.77955 52.5895 6.73119C52.439 6.68274 52.288 6.63588 52.1366 6.59063C51.9851 6.54529 51.8332 6.50155 51.6809 6.45941C51.5286 6.41727 51.3758 6.37668 51.2226 6.33765C51.0695 6.29862 50.9159 6.26119 50.762 6.22536C50.608 6.18953 50.4537 6.15529 50.299 6.12266C50.1444 6.09002 49.9894 6.05894 49.8341 6.02941C49.6788 5.99997 49.5233 5.97213 49.3674 5.94589C48.1409 5.74729 46.8883 5.7237 45.6488 5.67361C45.6481 3.78669 45.7075 1.88439 45.6402 0Z" fill="url(#paint1_linear_323_10628)"/>
<path d="M37.0625 66.0867C34.922 63.6229 32.8435 61.1079 30.8268 58.5416C27.3433 54.1132 24.0639 49.591 21.2516 44.6998C20.0363 42.5863 18.8403 40.3846 18.0209 38.0814C17.168 35.6838 16.7138 33.0442 16.63 30.5024C16.3631 22.4076 18.9587 15.1345 24.5221 9.20203C24.6577 9.05853 24.7947 8.91637 24.9331 8.77556C25.0716 8.63484 25.2114 8.49546 25.3527 8.35743C25.4939 8.21948 25.6365 8.08296 25.7805 7.94787C25.9245 7.81278 26.0699 7.67916 26.2166 7.54702C26.3632 7.41479 26.5111 7.28407 26.6605 7.15487C26.8098 7.02567 26.9604 6.89798 27.1123 6.77181C27.2641 6.64564 27.4172 6.52103 27.5715 6.39796C27.726 6.27482 27.8816 6.15327 28.0384 6.03332C28.1952 5.91338 28.3532 5.79498 28.5124 5.67815C28.6716 5.56131 28.8319 5.44612 28.9934 5.33256C29.1549 5.21901 29.3175 5.10705 29.4813 4.99669C29.6451 4.88641 29.8099 4.77778 29.9759 4.67079C30.1419 4.56379 30.3088 4.45848 30.4768 4.35485C30.6449 4.25114 30.814 4.14919 30.9841 4.04901C31.1542 3.94874 31.3253 3.8502 31.4974 3.75338C31.6694 3.65657 31.8424 3.56148 32.0165 3.46811C32.1904 3.37482 32.3653 3.28327 32.5412 3.19343C32.717 3.1036 32.8937 3.01553 33.0713 2.92922C33.2489 2.84301 33.4274 2.75855 33.6066 2.67587C33.786 2.59318 33.9661 2.51231 34.147 2.43324C34.328 2.35417 34.5097 2.27691 34.6921 2.20146C34.8745 2.12609 35.0578 2.05253 35.2417 1.98078C35.4257 1.90903 35.6103 1.83914 35.7957 1.77109C35.981 1.70312 36.1671 1.63696 36.3538 1.57261C36.5404 1.50835 36.7278 1.44594 36.9158 1.38538C37.1037 1.3249 37.2922 1.26627 37.4813 1.20949C37.6704 1.1528 37.86 1.098 38.0503 1.04509C38.2405 0.992094 38.4312 0.941079 38.6225 0.89204C38.8138 0.842917 39.0055 0.795729 39.1976 0.750475C39.3898 0.705221 39.5824 0.661902 39.7755 0.620517C39.9686 0.579217 40.1621 0.539809 40.3559 0.502294C40.5498 0.464778 40.744 0.42924 40.9385 0.395678C42.4969 0.134753 44.0614 0.0488288 45.6387 0C45.706 1.88439 45.6465 3.78669 45.6473 5.67361C45.3869 5.67802 45.1246 5.67184 44.8673 5.71613C44.6839 5.72235 44.5007 5.7308 44.3176 5.74149C44.1344 5.75225 43.9514 5.76521 43.7686 5.78035C43.5857 5.79549 43.4031 5.81286 43.2207 5.83246C43.0383 5.85206 42.8561 5.87388 42.6743 5.89794C42.4923 5.922 42.3108 5.94824 42.1296 5.97667C41.9483 6.00519 41.7674 6.03585 41.5869 6.06865C41.4064 6.10154 41.2264 6.13662 41.0468 6.17388C40.8671 6.21115 40.688 6.25059 40.5093 6.29223C40.3306 6.33387 40.1525 6.37765 39.9748 6.42358C39.7973 6.46959 39.6202 6.5177 39.4438 6.56792C39.2673 6.61822 39.0915 6.67067 38.9164 6.72526C38.7412 6.77976 38.5667 6.83641 38.3929 6.89521C38.2191 6.95401 38.0461 7.0149 37.8738 7.07791C37.7015 7.14099 37.53 7.20614 37.3593 7.27335C37.1886 7.34047 37.0187 7.40974 36.8497 7.48116C36.6807 7.55249 36.5126 7.62583 36.3453 7.7012C36.178 7.77665 36.0117 7.85412 35.8463 7.93361C35.681 8.0131 35.5167 8.09457 35.3534 8.17801C35.1899 8.26154 35.0276 8.34704 34.8663 8.43452C34.705 8.52191 34.5448 8.61129 34.3858 8.70263C34.2266 8.79398 34.0686 8.88727 33.9118 8.98248C33.755 9.07762 33.5993 9.17469 33.4449 9.27369C33.2904 9.37269 33.1371 9.47355 32.9851 9.57625C32.8331 9.67896 32.6824 9.78351 32.5329 9.88992C32.3834 9.99624 32.2353 10.1044 32.0884 10.2144C31.9416 10.3245 31.7962 10.4362 31.6521 10.5497C31.5079 10.6632 31.3652 10.7785 31.2239 10.8955C31.0826 11.0125 30.9428 11.1312 30.8043 11.2517C30.6659 11.3722 30.5289 11.4942 30.3935 11.618C30.2581 11.7417 30.1242 11.8671 29.9918 11.9941C29.8595 12.1211 29.7287 12.2497 29.5994 12.3799C29.4701 12.5101 29.3425 12.6419 29.2165 12.7752C24.9151 17.3209 22.4594 23.3209 22.6456 29.6074C22.7087 31.7315 23.0652 33.8545 23.8631 35.831C24.6591 37.8026 25.7201 39.6778 26.7809 41.5166C31.0003 48.831 36.3268 55.5552 41.7391 62.0178L44.202 64.9717C44.6278 65.4816 45.0501 66.065 45.5384 66.5143C45.5529 66.5278 45.5684 66.5402 45.5836 66.5532C45.6097 68.539 45.5909 70.5266 45.591 72.5127C45.5912 73.5072 45.5577 74.5207 45.6221 75.513C45.2597 75.3908 38.0204 67.1149 37.0625 66.0867Z" fill="url(#paint2_linear_323_10628)"/>
<path d="M45.5846 13.3042C45.7071 13.3028 45.8296 13.3029 45.952 13.3045C46.0745 13.3062 46.197 13.3094 46.3193 13.3141C46.4417 13.3188 46.564 13.325 46.6863 13.3327C46.8085 13.3406 46.9306 13.3499 47.0527 13.3606C47.1746 13.3715 47.2965 13.3839 47.4182 13.3977C47.5398 13.4116 47.6613 13.427 47.7827 13.4439C47.904 13.4609 48.025 13.4794 48.1458 13.4993C48.2667 13.5192 48.3873 13.5407 48.5076 13.5636C48.6278 13.5867 48.7478 13.6112 48.8675 13.6372C48.9872 13.6632 49.1066 13.6907 49.2256 13.7196C49.3446 13.7486 49.4632 13.7791 49.5814 13.8111C49.6997 13.843 49.8175 13.8765 49.9349 13.9114C50.0524 13.9463 50.1693 13.9826 50.2857 14.0204C50.4022 14.0582 50.5182 14.0976 50.6338 14.1384C50.7493 14.1791 50.8643 14.2213 50.9787 14.2649C51.0931 14.3085 51.207 14.3535 51.3203 14.4C51.4336 14.4465 51.5463 14.4943 51.6585 14.5436C51.7706 14.593 51.8821 14.6437 51.993 14.6958C52.1038 14.7479 52.214 14.8013 52.3235 14.8562C52.433 14.9111 52.5418 14.9673 52.6499 15.0249C52.758 15.0825 52.8653 15.1414 52.9719 15.2016C53.0786 15.2619 53.1844 15.3235 53.2895 15.3865C53.3946 15.4494 53.4988 15.5136 53.6023 15.5791C53.7057 15.6447 53.8084 15.7115 53.9103 15.7796C54.0121 15.8478 54.1129 15.9171 54.213 15.9878C54.3131 16.0585 54.4122 16.1303 54.5105 16.2034C54.6087 16.2765 54.706 16.3509 54.8024 16.4265C54.8988 16.502 54.9943 16.5788 55.0887 16.6568C55.1832 16.7347 55.2767 16.8138 55.3692 16.8941C55.4616 16.9744 55.5531 17.0559 55.6435 17.1385C55.734 17.221 55.8234 17.3047 55.9117 17.3896C56.0001 17.4744 56.0873 17.5603 56.1736 17.6474C56.258 17.7318 56.3414 17.8173 56.4238 17.9037C56.506 17.9902 56.5872 18.0777 56.6674 18.1662C56.7476 18.2547 56.8266 18.3442 56.9046 18.4347C56.9826 18.5251 57.0594 18.6164 57.1351 18.7087C57.2108 18.8011 57.2854 18.8944 57.3588 18.9886C57.4323 19.0827 57.5045 19.1777 57.5756 19.2737C57.6466 19.3697 57.7164 19.4665 57.7852 19.5642C57.8538 19.6618 57.9213 19.7603 57.9875 19.8597C58.0538 19.959 58.1188 20.0591 58.1826 20.1601C58.2464 20.261 58.3089 20.3628 58.3702 20.4653C58.4315 20.5677 58.4914 20.671 58.5501 20.7749C58.6089 20.8789 58.6663 20.9836 58.7225 21.089C58.7787 21.1944 58.8335 21.3004 58.887 21.4072C58.9405 21.5139 58.9927 21.6213 59.0436 21.7293C59.0945 21.8373 59.144 21.9459 59.1922 22.0552C59.2405 22.1644 59.2874 22.2742 59.3328 22.3846C59.3783 22.495 59.4225 22.6059 59.4653 22.7175C59.508 22.8289 59.5494 22.9409 59.5894 23.0533C59.6294 23.1659 59.668 23.2789 59.7053 23.3924C59.7424 23.5058 59.7782 23.6197 59.8126 23.734C59.8471 23.8484 59.8801 23.9631 59.9117 24.0782C59.9432 24.1934 59.9734 24.3089 60.0021 24.4248C60.0309 24.5408 60.0582 24.657 60.084 24.7736C60.1099 24.8902 60.1344 25.007 60.1573 25.1242C60.1803 25.2414 60.2018 25.3588 60.2219 25.4765C60.242 25.5942 60.2607 25.7121 60.2778 25.8303C60.295 25.9485 60.3107 26.0668 60.325 26.1853C60.3393 26.3039 60.3521 26.4227 60.3634 26.5415C60.3747 26.6604 60.3846 26.7794 60.393 26.8985C60.4014 27.0176 60.4084 27.1368 60.4138 27.256C60.4193 27.3753 60.4233 27.4946 60.4258 27.614C60.4284 27.7333 60.4294 27.8527 60.429 27.9722C60.4292 28.0918 60.4279 28.2114 60.4252 28.331C60.4225 28.4506 60.4183 28.5702 60.4126 28.6896C60.4069 28.8091 60.3998 28.9286 60.3913 29.0479C60.3828 29.1672 60.3728 29.2864 60.3612 29.4055C60.3497 29.5245 60.3368 29.6434 60.3224 29.7622C60.308 29.881 60.2922 29.9995 60.2749 30.1179C60.2576 30.2363 60.2388 30.3545 60.2187 30.4723C60.1985 30.5902 60.1769 30.7079 60.1538 30.8253C60.1308 30.9427 60.1062 31.0598 60.0802 31.1766C60.0543 31.2934 60.027 31.4098 59.9982 31.5258C59.9695 31.642 59.9393 31.7578 59.9076 31.8732C59.876 31.9885 59.843 32.1035 59.8086 32.218C59.7742 32.3326 59.7384 32.4467 59.7011 32.5605C59.6639 32.6741 59.6253 32.7873 59.5854 32.9001C59.5454 33.0128 59.504 33.1251 59.4612 33.2369C59.4185 33.3486 59.3744 33.4598 59.329 33.5705C59.2836 33.6811 59.2368 33.7911 59.1886 33.9007C59.1405 34.0102 59.091 34.1191 59.0402 34.2275C58.9894 34.3357 58.9373 34.4434 58.8839 34.5505C58.8304 34.6574 58.7756 34.7638 58.7196 34.8694C58.6636 34.9752 58.6062 35.0802 58.5476 35.1845C58.489 35.2888 58.4291 35.3923 58.368 35.4951C58.3068 35.5979 58.2444 35.7 58.1808 35.8013C58.1172 35.9026 58.0523 36.0031 57.9862 36.1028C57.9201 36.2025 57.8528 36.3014 57.7843 36.3994C57.7157 36.4975 57.646 36.5947 57.5752 36.6911C57.5043 36.7874 57.4322 36.8829 57.359 36.9775C57.2857 37.0721 57.2113 37.1657 57.1359 37.2585C57.0603 37.3513 56.9837 37.4431 56.9059 37.5341C56.8281 37.6249 56.7493 37.7148 56.6693 37.8038C56.5893 37.8928 56.5083 37.9808 56.4262 38.0678C56.344 38.1547 56.2608 38.2407 56.1766 38.3257C53.5644 40.9359 49.6295 42.7556 45.8977 42.7219C45.7784 42.7209 45.6608 42.7167 45.5421 42.7052C45.54 41.3017 45.4722 39.8664 45.5827 38.4675C48.1464 38.3948 50.5856 37.5603 52.5434 35.876C52.6083 35.8214 52.6724 35.7658 52.7359 35.7095C52.7993 35.6532 52.862 35.5961 52.924 35.5381C52.986 35.4803 53.0473 35.4216 53.1078 35.3621C53.1683 35.3027 53.228 35.2424 53.287 35.1814C53.346 35.1205 53.4043 35.0588 53.4617 34.9963C53.5191 34.9339 53.5757 34.8708 53.6316 34.807C53.6874 34.743 53.7424 34.6785 53.7966 34.6133C53.8508 34.548 53.9042 34.4821 53.9567 34.4155C54.0093 34.3488 54.061 34.2816 54.1118 34.2137C54.1627 34.1457 54.2126 34.0772 54.2617 34.008C54.3108 33.9388 54.359 33.869 54.4064 33.7986C54.4537 33.7283 54.5002 33.6573 54.5457 33.5857C54.5913 33.5142 54.6359 33.442 54.6797 33.3694C54.7233 33.2966 54.7661 33.2233 54.808 33.1496C54.8499 33.0758 54.8908 33.0015 54.9308 32.9267C54.9708 32.8519 55.0099 32.7766 55.048 32.7008C55.0861 32.625 55.1232 32.5487 55.1594 32.472C55.1955 32.3952 55.2306 32.318 55.2649 32.2404C55.2991 32.1628 55.3323 32.0848 55.3645 32.0063C55.3968 31.9278 55.428 31.849 55.4583 31.7697C55.4886 31.6904 55.5178 31.6108 55.546 31.5308C55.5742 31.4508 55.6015 31.3704 55.6276 31.2898C55.6539 31.2091 55.679 31.1281 55.7032 31.0468C55.7273 30.9654 55.7505 30.8838 55.7726 30.8019C55.7947 30.72 55.8158 30.6379 55.8358 30.5555C55.8558 30.473 55.8748 30.3903 55.8927 30.3074C55.9106 30.2245 55.9275 30.1413 55.9433 30.058C55.9591 29.9746 55.9739 29.8911 55.9876 29.8074C56.0013 29.7237 56.014 29.6398 56.0256 29.5558C56.0372 29.4718 56.0477 29.3876 56.0571 29.3032C56.0666 29.2189 56.075 29.1345 56.0823 29.05C56.0896 28.9655 56.0959 28.8809 56.1011 28.7962C56.2893 26.073 55.5291 23.4282 53.7219 21.3577C51.7034 19.0452 49.0627 17.7807 46.0044 17.5613C45.8386 17.5386 45.6919 17.5163 45.5345 17.4544C45.4185 16.1142 45.4917 14.6606 45.5444 13.3138L45.5846 13.3042Z" fill="url(#paint3_linear_323_10628)"/>
<path d="M45.5438 13.314C45.4911 14.6607 45.4179 16.1144 45.534 17.4546C45.6913 17.5164 45.8381 17.5387 46.0039 17.5614C43.0295 17.5474 40.2824 18.5428 38.1583 20.6607C38.0978 20.7205 38.0381 20.781 37.9793 20.8422C37.9203 20.9033 37.8621 20.9652 37.8048 21.0279C37.7473 21.0906 37.6907 21.1539 37.6348 21.2179C37.579 21.2819 37.524 21.3467 37.4698 21.4121C37.4156 21.4776 37.3622 21.5436 37.3097 21.6103C37.2571 21.6771 37.2053 21.7445 37.1544 21.8126C37.1035 21.8806 37.0534 21.9493 37.0042 22.0185C36.955 22.0878 36.9067 22.1577 36.8592 22.2282C36.8118 22.2986 36.7652 22.3696 36.7196 22.4413C36.6738 22.513 36.629 22.5851 36.5852 22.6578C36.5413 22.7306 36.4983 22.8039 36.4561 22.8777C36.4141 22.9515 36.3729 23.0258 36.3327 23.1007C36.2924 23.1755 36.2531 23.2509 36.2147 23.3267C36.1764 23.4024 36.139 23.4787 36.1026 23.5555C36.0661 23.6322 36.0305 23.7094 35.996 23.7871C35.9615 23.8647 35.9279 23.9428 35.8953 24.0212C35.8626 24.0996 35.831 24.1784 35.8004 24.2577C35.7698 24.3369 35.7401 24.4165 35.7114 24.4965C35.6828 24.5765 35.6551 24.6568 35.6284 24.7375C35.6018 24.8182 35.5761 24.8992 35.5513 24.9805C35.5267 25.0619 35.503 25.1435 35.4804 25.2253C35.4578 25.3072 35.4362 25.3894 35.4156 25.4718C35.395 25.5543 35.3754 25.637 35.3569 25.7199C35.3383 25.8028 35.3208 25.8859 35.3043 25.9692C35.2879 26.0526 35.2724 26.1361 35.258 26.2199C35.2436 26.3036 35.2303 26.3875 35.218 26.4716C35.2056 26.5557 35.1943 26.6399 35.1842 26.7242C35.1739 26.8086 35.1647 26.8931 35.1567 26.9776C35.1485 27.0622 35.1414 27.1469 35.1355 27.2316C35.1294 27.3164 35.1244 27.4012 35.1206 27.4861C35.1166 27.5709 35.1138 27.6558 35.112 27.7408C35.1101 27.8258 35.1094 27.9107 35.1097 27.9957C35.11 28.0817 35.1113 28.1678 35.1136 28.2539C35.116 28.34 35.1194 28.426 35.124 28.512C35.1285 28.5979 35.1341 28.6838 35.1408 28.7696C35.1474 28.8555 35.1551 28.9413 35.1639 29.0269C35.1727 29.1125 35.1825 29.198 35.1934 29.2834C35.2043 29.3688 35.2163 29.454 35.2293 29.5391C35.2424 29.6243 35.2565 29.7092 35.2716 29.7939C35.2867 29.8787 35.3029 29.9633 35.3202 30.0476C35.3375 30.1319 35.3558 30.216 35.3752 30.3C35.3945 30.3838 35.4148 30.4674 35.4363 30.5508C35.4577 30.6342 35.4802 30.7173 35.5036 30.8001C35.5272 30.883 35.5517 30.9655 35.5772 31.0477C35.6028 31.1299 35.6293 31.2118 35.6569 31.2933C35.6845 31.3749 35.7131 31.4561 35.7427 31.537C35.7723 31.6178 35.803 31.6983 35.8346 31.7783C35.8661 31.8584 35.8987 31.9381 35.9324 32.0173C35.9659 32.0966 36.0005 32.1755 36.0361 32.2539C36.0716 32.3323 36.1081 32.4102 36.1456 32.4877C36.1831 32.5652 36.2216 32.6423 36.2609 32.7188C36.3004 32.7953 36.3407 32.8713 36.382 32.9469C36.4233 33.0225 36.4656 33.0975 36.5087 33.1719C36.5519 33.2464 36.596 33.3204 36.641 33.3937C36.686 33.4672 36.732 33.54 36.7787 33.6121C36.8256 33.6844 36.8733 33.756 36.9219 33.8271C36.9705 33.8982 37.0199 33.9686 37.0703 34.0385C37.1207 34.1083 37.1719 34.1775 37.224 34.246C37.2761 34.3146 37.329 34.3825 37.3827 34.4498C37.4365 34.517 37.4911 34.5835 37.5465 34.6494C37.6019 34.7153 37.6582 34.7804 37.7152 34.845C37.7722 34.9095 37.8301 34.9732 37.8888 35.0362C37.9474 35.0992 38.0068 35.1615 38.067 35.2231C38.1272 35.2847 38.1881 35.3455 38.2498 35.4055C40.1822 37.3002 42.854 38.4913 45.5822 38.4676C45.4717 39.8665 45.5394 41.3018 45.5416 42.7054L45.4441 42.7089C42.0973 42.6996 38.5939 41.2886 36.0635 39.1308C33.0517 36.5624 31.1416 32.9883 30.8568 29.021C30.8494 28.9022 30.8434 28.7833 30.8389 28.6644C30.8344 28.5455 30.8312 28.4266 30.8296 28.3076C30.8279 28.1886 30.8277 28.0697 30.8289 27.9506C30.8302 27.8317 30.8329 27.7128 30.837 27.5938C30.8411 27.4749 30.8467 27.356 30.8537 27.2373C30.8607 27.1184 30.8692 26.9997 30.8792 26.8812C30.889 26.7626 30.9003 26.6441 30.9131 26.5258C30.926 26.4075 30.9402 26.2894 30.9559 26.1715C30.9715 26.0535 30.9886 25.9357 31.0071 25.8182C31.0256 25.7006 31.0455 25.5833 31.0669 25.4663C31.0883 25.3492 31.1111 25.2324 31.1353 25.1159C31.1595 24.9994 31.1852 24.8832 31.2122 24.7673C31.2393 24.6515 31.2677 24.5359 31.2975 24.4207C31.3274 24.3055 31.3587 24.1907 31.3913 24.0762C31.4239 23.9618 31.4579 23.8478 31.4934 23.7342C31.5288 23.6206 31.5655 23.5075 31.6036 23.3948C31.6418 23.2821 31.6814 23.1698 31.7222 23.058C31.7631 22.9463 31.8053 22.8351 31.8489 22.7243C31.8926 22.6136 31.9375 22.5035 31.9838 22.3939C32.0301 22.2842 32.0776 22.1751 32.1265 22.0667C32.1755 21.9582 32.2257 21.8503 32.2773 21.7431C32.3288 21.6358 32.3817 21.5292 32.4357 21.4232C32.4899 21.3172 32.5453 21.212 32.602 21.1074C32.6587 21.0028 32.7167 20.8988 32.7759 20.7956C32.8351 20.6924 32.8956 20.5899 32.9573 20.4881C33.0191 20.3865 33.082 20.2855 33.1462 20.1852C33.2103 20.085 33.2757 19.9856 33.3423 19.8871C33.4089 19.7884 33.4767 19.6906 33.5457 19.5936C33.6146 19.4966 33.6847 19.4005 33.756 19.3053C33.8273 19.21 33.8998 19.1156 33.9734 19.0221C34.047 18.9286 34.1217 18.836 34.1975 18.7443C34.2734 18.6526 34.3503 18.5619 34.4284 18.472C37.4578 15.0259 41.0414 13.5934 45.5438 13.314Z" fill="url(#paint4_linear_323_10628)"/>
<defs>
<linearGradient id="paint0_linear_323_10628" x1="45.8179" y1="66.0864" x2="45.8179" y2="78.1396" gradientUnits="userSpaceOnUse">
<stop stop-color="#458DFC"/>
<stop offset="1" stop-color="#67C3F3"/>
</linearGradient>
<linearGradient id="paint1_linear_323_10628" x1="60.1863" y1="0" x2="60.1863" y2="75.513" gradientUnits="userSpaceOnUse">
<stop stop-color="#458DFC"/>
<stop offset="1" stop-color="#67C3F3"/>
</linearGradient>
<linearGradient id="paint2_linear_323_10628" x1="31.1411" y1="0" x2="31.1411" y2="75.513" gradientUnits="userSpaceOnUse">
<stop stop-color="#458DFC"/>
<stop offset="1" stop-color="#67C3F3"/>
</linearGradient>
<linearGradient id="paint3_linear_323_10628" x1="52.9509" y1="13.3032" x2="52.9509" y2="42.7224" gradientUnits="userSpaceOnUse">
<stop stop-color="#458DFC"/>
<stop offset="1" stop-color="#67C3F3"/>
</linearGradient>
<linearGradient id="paint4_linear_323_10628" x1="38.416" y1="13.314" x2="38.416" y2="42.7089" gradientUnits="userSpaceOnUse">
<stop stop-color="#458DFC"/>
<stop offset="1" stop-color="#67C3F3"/>
</linearGradient>
</defs>
</svg>
