<svg width="68" height="95" viewBox="0 0 68 95" fill="none" xmlns="http://www.w3.org/2000/svg">
<g clip-path="url(#clip0_323_10690)">
<path d="M64.9697 0H2.32971C1.04143 0 0 1.02822 0 2.30017V92.7074C0 93.9794 1.04143 95.0076 2.32971 95.0076H64.9697C66.258 95.0076 67.2994 93.9794 67.2994 92.7074V2.30017C67.2917 1.02822 66.2502 0 64.9697 0Z" fill="url(#paint0_linear_323_10690)"/>
<path d="M60.858 4.09766H6.43371C5.184 4.09766 4.16571 5.10303 4.16571 6.34451V81.0923C4.16571 82.3338 5.184 83.3316 6.43371 83.3316H60.858C62.1154 83.3316 63.126 82.3262 63.126 81.0923V6.34451C63.126 5.10303 62.1154 4.09766 60.858 4.09766Z" fill="white"/>
<path d="M33.6497 92.5475C35.5413 92.5475 37.0748 91.0335 37.0748 89.1658C37.0748 87.2981 35.5413 85.7841 33.6497 85.7841C31.758 85.7841 30.2245 87.2981 30.2245 89.1658C30.2245 91.0335 31.758 92.5475 33.6497 92.5475Z" fill="white"/>
<path d="M21.0685 39.4484L21.055 34.9964C21.0499 32.9417 20.9606 30.9204 21.57 28.9283C21.6003 28.8316 21.6318 28.7352 21.6645 28.6392C21.6973 28.5432 21.7312 28.4477 21.7662 28.3525C21.8013 28.2574 21.8375 28.1627 21.8749 28.0684C21.9122 27.9741 21.9508 27.8803 21.9906 27.7871C22.0302 27.6937 22.0711 27.6009 22.1131 27.5086C22.1551 27.4162 22.1982 27.3244 22.2424 27.2331C22.2867 27.1419 22.332 27.0512 22.3784 26.9611C22.4249 26.8709 22.4724 26.7814 22.5212 26.6924C22.5698 26.6034 22.6195 26.5151 22.6703 26.4274C22.7212 26.3396 22.7731 26.2525 22.8261 26.1661C22.8791 26.0796 22.9331 25.9938 22.9881 25.9087C23.0432 25.8235 23.0994 25.739 23.1566 25.6552C23.2137 25.5714 23.2719 25.4884 23.3311 25.4061C23.3903 25.3237 23.4505 25.2421 23.5117 25.1613C23.5729 25.0804 23.6351 25.0003 23.6982 24.921C23.7614 24.8417 23.8256 24.7631 23.8907 24.6854C23.9558 24.6076 24.0218 24.5307 24.0888 24.4546C24.1558 24.3784 24.2237 24.3031 24.2926 24.2286C24.3614 24.1542 24.4312 24.0806 24.5018 24.0078C24.5725 23.9351 24.644 23.8632 24.7165 23.7923C24.7888 23.7213 24.8621 23.6511 24.9363 23.5819C25.0104 23.5128 25.0854 23.4445 25.1613 23.3771C25.2371 23.3098 25.3137 23.2434 25.3911 23.1779C25.4685 23.1125 25.5467 23.048 25.6258 22.9844C25.7048 22.9209 25.7846 22.8583 25.8652 22.7968C25.9458 22.7352 26.0271 22.6746 26.1092 22.615C26.1913 22.5555 26.274 22.4969 26.3575 22.4394C26.441 22.3818 26.5252 22.3253 26.6102 22.2699C26.695 22.2144 26.7805 22.16 26.8667 22.1066C26.953 22.0532 27.0399 22.0009 27.1275 21.9497C27.2149 21.8984 27.303 21.8482 27.3918 21.7991C27.4805 21.7501 27.5699 21.7021 27.6598 21.6552C30.9633 19.9105 34.2799 19.8293 37.7998 20.9079C37.3017 22.7387 36.1641 23.9658 34.9607 25.3653C32.8287 25.0682 30.8213 25.3814 29.0671 26.6991C27.6037 27.7985 26.5407 29.5233 26.2865 31.3417C26.1349 32.4271 26.1974 33.5599 26.1997 34.655L26.207 39.4651C24.5357 39.3098 22.7507 39.4415 21.0685 39.4484Z" fill="#6BDCFC"/>
<path d="M37.8015 20.9092C41.0049 22.1766 43.6156 24.3158 45.0057 27.5337C45.6591 29.0461 45.9044 30.5922 45.9981 32.2271L46.0144 39.4408C44.8609 39.4824 43.7015 39.4226 42.5508 39.4945C42.0537 39.4436 41.5194 39.4894 41.0151 39.4701C41.0049 38.3111 41.0009 37.1521 41.0031 35.9931C41.0813 33.4635 41.3011 30.6422 39.7984 28.4619C38.6519 26.7983 36.9418 25.7223 34.9623 25.3666C36.1658 23.967 37.3034 22.7399 37.8015 20.9092Z" fill="#A1C7FC"/>
<path d="M46.0243 39.4371C46.7966 39.4981 47.4796 39.7724 47.9808 40.3868C48.237 40.7008 48.3868 41.0225 48.4284 41.4245C48.5774 42.8653 48.4631 44.4163 48.4624 45.8683L48.4558 54.9561L48.4466 60.4245C48.448 61.2631 48.5482 62.2465 48.4355 63.072C48.4242 63.1575 48.4096 63.2425 48.3918 63.327C48.3397 63.7488 48.1242 64.1828 47.8625 64.5136C47.4426 65.0446 46.6949 65.5478 46.0077 65.6137C44.3959 65.7684 42.6804 65.6639 41.0576 65.664L31.5143 65.6465L24.599 65.6462C23.4008 65.6493 22.13 65.7427 20.9414 65.6131C20.239 65.5366 19.7915 65.4108 19.2299 64.9408C18.5022 64.3315 18.1069 63.5349 18.0378 62.5995L18.3241 62.5863C19.1332 62.4623 20.0358 62.5381 20.8553 62.5384L25.8953 62.544L43.9707 62.5501L43.9275 39.5314C43.4686 39.5348 43.0182 39.531 42.5607 39.4909C43.7114 39.419 44.8708 39.4788 46.0243 39.4371Z" fill="#4A93FC"/>
<path d="M21.0794 39.4465C22.7616 39.4396 24.5466 39.3079 26.2179 39.4632C28.0584 39.5386 29.9166 39.4927 31.759 39.4947C33.675 39.4967 35.61 39.547 37.5233 39.4545C38.6903 39.4661 39.8573 39.4703 41.0243 39.4669C41.5286 39.4862 42.0629 39.4405 42.56 39.4914C43.0175 39.5314 43.4679 39.5353 43.9269 39.5318L43.97 62.5506L25.8947 62.5444L20.8546 62.5389C20.0351 62.5386 19.1325 62.4628 18.3235 62.5868L18.0372 62.5999L18.0227 61.9578C18.0671 57.3524 18.0164 52.7398 18.01 48.1338L18.0039 44.1803C18.003 43.3513 17.9601 42.4952 18.0623 41.6718C18.1336 41.0982 18.2687 40.6304 18.6635 40.1916C19.3105 39.4725 20.1913 39.4878 21.0794 39.4465Z" fill="#67B6FC"/>
<path d="M31.8451 54.5468C32.0293 54.3027 32.388 54.1056 32.6372 53.9195C33.8216 53.035 34.66 52.2847 35.2221 50.8807C35.345 50.5737 35.4812 50.245 35.5345 49.9178C35.6364 49.2925 35.517 48.5202 35.7775 47.9411C35.7863 47.9218 35.7957 47.903 35.8047 47.8838C36.6801 48.6325 37.2553 49.5981 37.3327 50.7694C37.3371 50.8338 37.3399 50.8983 37.3411 50.9628C37.3423 51.0273 37.3418 51.0918 37.3397 51.1563C37.3377 51.2208 37.334 51.2852 37.3287 51.3495C37.3234 51.4138 37.3164 51.4779 37.308 51.5419C37.2994 51.6059 37.2892 51.6695 37.2775 51.733C37.2658 51.7965 37.2525 51.8596 37.2376 51.9223C37.2226 51.9851 37.2061 52.0475 37.1881 52.1094C37.17 52.1713 37.1504 52.2328 37.1293 52.2937C37.1082 52.3547 37.0855 52.4152 37.0613 52.4749C37.0371 52.5348 37.0115 52.594 36.9843 52.6524C36.9571 52.711 36.9285 52.7688 36.8984 52.8259C36.8683 52.883 36.8369 52.9393 36.804 52.9948C36.7711 53.0503 36.7368 53.1049 36.7011 53.1587C36.6655 53.2125 36.6285 53.2653 36.5902 53.3173C36.5518 53.3692 36.5122 53.4201 36.4713 53.47C36.4305 53.52 36.3884 53.5689 36.345 53.6166C35.8233 54.1981 35.195 54.567 34.4827 54.8692C34.6627 56.5097 34.9297 58.1749 35.042 59.8179L31.7344 59.8166C31.8488 58.8021 32.362 55.5858 32.2025 54.7466C32.0834 54.6528 31.9874 54.5995 31.8451 54.5468Z" fill="#4992FD"/>
<path d="M31.84 54.5474C31.5751 54.5235 31.2685 54.3484 31.0509 54.206C30.2024 53.6502 29.6099 52.7199 29.4118 51.7298C29.2009 50.6762 29.4454 49.6176 30.0583 48.7433C30.0967 48.6882 30.1364 48.6341 30.1775 48.581C30.2187 48.5279 30.2612 48.4758 30.3048 48.4248C30.3486 48.3738 30.3935 48.3239 30.4397 48.2751C30.4859 48.2263 30.5334 48.1788 30.582 48.1323C30.6305 48.086 30.6802 48.0409 30.731 47.9969C30.7818 47.953 30.8337 47.9103 30.8868 47.8689C30.9397 47.8276 30.9936 47.7877 31.0487 47.7491C31.1036 47.7103 31.1594 47.6731 31.2163 47.6372C31.2731 47.6014 31.3307 47.5669 31.3892 47.534C31.4477 47.501 31.507 47.4695 31.5671 47.4394C31.6273 47.4094 31.6881 47.3809 31.7496 47.3539C31.8111 47.3269 31.8732 47.3015 31.9361 47.2775C31.9988 47.2536 32.0621 47.2312 32.126 47.2105C32.19 47.1898 32.2544 47.1706 32.3192 47.1531C32.384 47.1356 32.4493 47.1196 32.5149 47.1053C32.5806 47.091 32.6465 47.0784 32.7128 47.0674C33.8226 46.8891 34.9098 47.2222 35.7995 47.8843C35.7905 47.9035 35.7811 47.9224 35.7724 47.9417C35.5118 48.5208 35.6312 49.2931 35.5294 49.9183C35.476 50.2456 35.3399 50.5742 35.2169 50.8813C34.6548 52.2853 33.8165 53.0355 32.632 53.9201C32.3829 54.1062 32.0242 54.3032 31.84 54.5474Z" fill="#A1C7FC"/>
</g>
<defs>
<linearGradient id="paint0_linear_323_10690" x1="4.07698" y1="45.0301" x2="67.3445" y2="50.4539" gradientUnits="userSpaceOnUse">
<stop stop-color="#6CBCFC"/>
<stop offset="1" stop-color="#458DFC"/>
</linearGradient>
<clipPath id="clip0_323_10690">
<rect width="67.2917" height="95" fill="white"/>
</clipPath>
</defs>
</svg>
