<svg width="37" height="37" viewBox="0 0 37 37" fill="none" xmlns="http://www.w3.org/2000/svg">
<path d="M12.3332 20.0417L18.9152 25.3073C19.5392 25.8065 20.4488 25.7105 20.9549 25.092L33.9165 9.25" stroke="#01A768" stroke-width="2.91667" stroke-linecap="round"/>
<path fill-rule="evenodd" clip-rule="evenodd" d="M17.0537 18.9728L24.2533 10.1734C24.7633 9.55 24.6714 8.63121 24.0481 8.12119C23.4247 7.61117 22.5059 7.70305 21.9959 8.32641L14.813 17.1055L17.0537 18.9728ZM12.4362 24.6165L10.1955 22.7492L9.00619 24.2027L3.95793 20.4165C3.3136 19.9333 2.39951 20.0639 1.91626 20.7082C1.43302 21.3525 1.5636 22.2666 2.20793 22.7499L7.25619 26.5361C8.50654 27.4738 10.2739 27.2593 11.2636 26.0497L12.4362 24.6165Z" fill="#01A768"/>
</svg>
