<svg width="31" height="27" viewBox="0 0 31 27" fill="none" xmlns="http://www.w3.org/2000/svg">
<path d="M19.7891 1.9502H2.95C1.87304 1.9502 1 2.82324 1 3.9002V24.0502C1 25.1272 1.87305 26.0002 2.95 26.0002H23.1C24.177 26.0002 25.05 25.1271 25.05 24.0502V13.9752" stroke="#01A768" stroke-width="1.95" stroke-linecap="round"/>
<path d="M17.5344 3.45288V13.9748L13.025 10.9685L8.51562 13.9748V3.45288" stroke="#01A768" stroke-width="1.95" stroke-linecap="round" stroke-linejoin="round"/>
<circle cx="26.024" cy="10.0343" r="1.05625" stroke="#01A768" stroke-width="0.792188"/>
<circle cx="22.3277" cy="10.0343" r="1.05625" stroke="#01A768" stroke-width="0.792188"/>
<path d="M20.2146 7.39365H23.3834V3.69678M23.3834 3.69678V4.75303H19.6865V8.97803C19.6865 9.56138 20.1594 10.0343 20.7428 10.0343H21.2709M23.3834 3.69678H25.4959L27.9383 5.65071C28.0636 5.75093 28.1365 5.90267 28.1365 6.06311V6.86553M26.5521 4.75303H26.024V6.86553H28.1365M28.1365 6.86553V8.97803C28.1365 9.56138 27.6636 10.0343 27.0803 10.0343V10.0343M24.9678 10.0343H23.3834" stroke="#01A768" stroke-width="0.792188" stroke-linecap="round" stroke-linejoin="round"/>
</svg>
