<svg width="37" height="37" viewBox="0 0 37 37" fill="none" xmlns="http://www.w3.org/2000/svg">
<path d="M25.4378 6.16675H8.16699C7.06242 6.16675 6.16699 7.06218 6.16699 8.16675V28.8334C6.16699 29.938 7.06242 30.8334 8.16699 30.8334H28.8337C29.9382 30.8334 30.8337 29.938 30.8337 28.8334V18.5001" stroke="#03A9F5" stroke-width="2" stroke-linecap="round"/>
<path d="M23.125 7.70825V18.4999L18.5 15.4166L13.875 18.4999V7.70825" stroke="#03A9F5" stroke-width="2" stroke-linecap="round" stroke-linejoin="round"/>
<circle cx="5.20312" cy="5.20312" r="5.20312" transform="matrix(1 0 0 -1 24.8594 16.7656)" stroke="#03A9F5" stroke-width="0.75"/>
<path d="M30.3516 14.1641C30.3516 14.0044 30.2221 13.875 30.0625 13.875C29.9029 13.875 29.7734 14.0044 29.7734 14.1641C29.7734 14.3237 29.9029 14.4531 30.0625 14.4531C30.2221 14.4531 30.3516 14.3237 30.3516 14.1641Z" fill="#03A9F5" stroke="#03A9F5" stroke-width="0.375"/>
<path d="M30.0625 8.67188V12.7188" stroke="#03A9F5" stroke-width="0.75"/>
</svg>
